<?xml version="1.0" encoding="UTF-8" standalone="no"?>
<!-- Created with Inkscape (http://www.inkscape.org/) -->

<svg
   width="512"
   height="512"
   viewBox="0 0 135.46667 135.46667"
   version="1.1"
   id="svg5"
   inkscape:version="1.1 (c68e22c387, 2021-05-23)"
   sodipodi:docname="PhoneTitleSvg.svg"
   xmlns:inkscape="http://www.inkscape.org/namespaces/inkscape"
   xmlns:sodipodi="http://sodipodi.sourceforge.net/DTD/sodipodi-0.dtd"
   xmlns="http://www.w3.org/2000/svg"
   xmlns:svg="http://www.w3.org/2000/svg">
  <sodipodi:namedview
     id="namedview7"
     pagecolor="#ffffff"
     bordercolor="#111111"
     borderopacity="1"
     inkscape:pageshadow="0"
     inkscape:pageopacity="0"
     inkscape:pagecheckerboard="1"
     inkscape:document-units="px"
     showgrid="false"
     inkscape:zoom="0.51757813"
     inkscape:cx="369.99245"
     inkscape:cy="120.75472"
     inkscape:window-width="1366"
     inkscape:window-height="715"
     inkscape:window-x="-8"
     inkscape:window-y="-8"
     inkscape:window-maximized="1"
     inkscape:current-layer="layer1" />
  <defs
     id="defs2">
    <filter
       id="fx0"
       x="-10%"
       y="-10%"
       width="120%"
       height="120%"
       filterUnits="userSpaceOnUse"
       primitiveUnits="userSpaceOnUse">
      <feComponentTransfer
         color-interpolation-filters="sRGB"
         id="feComponentTransfer17">
        <feFuncR
           type="discrete"
           tableValues="0 0"
           id="feFuncR9" />
        <feFuncG
           type="discrete"
           tableValues="0 0"
           id="feFuncG11" />
        <feFuncB
           type="discrete"
           tableValues="0 0"
           id="feFuncB13" />
        <feFuncA
           type="linear"
           slope="0.4"
           intercept="0"
           id="feFuncA15" />
      </feComponentTransfer>
      <feGaussianBlur
         stdDeviation="1.21832 1.21832"
         id="feGaussianBlur19" />
    </filter>
    <clipPath
       id="clip1">
      <rect
         x="866"
         y="138"
         width="513"
         height="169"
         id="rect22" />
    </clipPath>
    <clipPath
       id="clip2">
      <rect
         x="35"
         y="33"
         width="445"
         height="45"
         id="rect25" />
    </clipPath>
    <clipPath
       id="clip3">
      <rect
         x="0"
         y="0"
         width="515"
         height="122"
         id="rect28" />
    </clipPath>
    <clipPath
       id="clip4">
      <rect
         x="886"
         y="138"
         width="435"
         height="58"
         id="rect31" />
    </clipPath>
    <clipPath
       id="clip5">
      <rect
         x="886"
         y="138"
         width="435"
         height="58"
         id="rect34" />
    </clipPath>
    <clipPath
       id="clip6">
      <rect
         x="886"
         y="138"
         width="435"
         height="58"
         id="rect37" />
    </clipPath>
    <filter
       id="fx0-0"
       x="-10%"
       y="-10%"
       width="120%"
       height="120%"
       filterUnits="userSpaceOnUse"
       primitiveUnits="userSpaceOnUse">
      <feComponentTransfer
         color-interpolation-filters="sRGB"
         id="feComponentTransfer195">
        <feFuncR
           type="discrete"
           tableValues="0 0"
           id="feFuncR187" />
        <feFuncG
           type="discrete"
           tableValues="0 0"
           id="feFuncG189" />
        <feFuncB
           type="discrete"
           tableValues="0 0"
           id="feFuncB191" />
        <feFuncA
           type="linear"
           slope="0.431373"
           intercept="0"
           id="feFuncA193" />
      </feComponentTransfer>
      <feGaussianBlur
         stdDeviation="0.925077 0.925077"
         id="feGaussianBlur197" />
    </filter>
    <clipPath
       id="clip1-5">
      <rect
         x="869"
         y="138"
         width="511"
         height="167"
         id="rect200" />
    </clipPath>
    <clipPath
       id="clip2-8">
      <rect
         x="35"
         y="32"
         width="444"
         height="44"
         id="rect203" />
    </clipPath>
    <clipPath
       id="clip3-6">
      <rect
         x="0"
         y="0"
         width="513"
         height="120"
         id="rect206" />
    </clipPath>
    <clipPath
       id="clip4-7">
      <rect
         x="886"
         y="138"
         width="435"
         height="58"
         id="rect209" />
    </clipPath>
    <clipPath
       id="clip5-7">
      <rect
         x="886"
         y="138"
         width="435"
         height="58"
         id="rect212" />
    </clipPath>
    <clipPath
       id="clip6-4">
      <rect
         x="886"
         y="138"
         width="435"
         height="58"
         id="rect215" />
    </clipPath>
  </defs>
  <g
     inkscape:label="Layer 1"
     inkscape:groupmode="layer"
     id="layer1">
    <g
       clip-path="url(#clip1-5)"
       transform="matrix(0.26458334,0,0,0.26458334,-226.65158,17.211216)"
       id="g246">
      <g
         clip-path="url(#clip2-8)"
         filter="url(#fx0)"
         transform="translate(868,186)"
         id="g224"
         style="filter:url(#fx0-0)">
        <g
           clip-path="url(#clip3-6)"
           id="g222">
          <path
             d="m 17.914,-36.464 c 0,-0.1767 0.0618,-0.3268 0.1855,-0.4505 0.1237,-0.1237 0.2738,-0.1855 0.4505,-0.1855 h 4.823 c 0.1767,0 0.3268,0.0618 0.4505,0.1855 0.1237,0.1237 0.1855,0.2738 0.1855,0.4505 v 35.828 c 0,0.176667 -0.0618,0.326833 -0.1855,0.4505 C 23.6998,-0.0618333 23.5497,0 23.373,0 H 17.808 C 17.4547,0 17.225,-0.176667 17.119,-0.53 L 9.222,-23.002 C 9.18667,-23.108 9.12483,-23.1522 9.0365,-23.1345 8.94817,-23.1168 8.904,-23.055 8.904,-22.949 l 0.053,22.313 c 0,0.176667 -0.06183,0.326833 -0.1855,0.4505 C 8.64783,-0.0618333 8.49767,0 8.321,0 H 3.498 C 3.32133,0 3.17117,-0.0618333 3.0475,-0.1855 2.92383,-0.309167 2.862,-0.459333 2.862,-0.636 v -35.828 c 0,-0.1767 0.06183,-0.3268 0.1855,-0.4505 C 3.17117,-37.0382 3.32133,-37.1 3.498,-37.1 h 5.459 c 0.35333,0 0.583,0.1767 0.689,0.53 l 7.95,22.313 c 0.0353,0.106 0.0972,0.1502 0.1855,0.1325 0.0883,-0.0177 0.1325,-0.0795 0.1325,-0.1855 z M 44.914,0 C 44.49,0 44.2603,-0.194333 44.225,-0.583 l -1.007,-5.565 c 0,-0.17667 -0.106,-0.265 -0.318,-0.265 h -7.738 c -0.212,0 -0.318,0.08833 -0.318,0.265 l -1.007,5.565 C 33.8017,-0.194333 33.572,0 33.148,0 h -4.823 c -0.4947,0 -0.689,-0.229667 -0.583,-0.689 l 7.844,-35.828 c 0.0707,-0.3887 0.3003,-0.583 0.689,-0.583 h 5.618 c 0.3887,0 0.6183,0.1943 0.689,0.583 l 7.844,35.828 v 0.212 C 50.426,-0.159 50.2317,0 49.843,0 Z m -9.116,-11.501 c -0.0353,0.1767 0.053,0.265 0.265,0.265 h 5.883 c 0.212,0 0.3003,-0.0883 0.265,-0.265 l -3.074,-16.748 c -0.0353,-0.106 -0.0883,-0.159 -0.159,-0.159 -0.0707,0 -0.1237,0.053 -0.159,0.159 z m 35.0393,-25.175 c 0.1767,-0.2827 0.4417,-0.424 0.795,-0.424 h 4.876 c 0.1767,0 0.3269,0.0618 0.4505,0.1855 0.1237,0.1237 0.1855,0.2738 0.1855,0.4505 v 35.828 c 0,0.176667 -0.0618,0.326833 -0.1855,0.4505 C 76.8352,-0.0618333 76.685,0 76.5083,0 h -4.876 C 71.4557,0 71.3055,-0.0618333 71.1818,-0.1855 71.0582,-0.309167 70.9963,-0.459333 70.9963,-0.636 v -25.016 c 0,-0.1413 -0.0353,-0.212 -0.106,-0.212 -0.0706,0 -0.1413,0.053 -0.212,0.159 l -4.611,8.374 c -0.1766,0.2827 -0.3356,0.424 -0.477,0.424 -0.1413,0 -0.3003,-0.1413 -0.477,-0.424 l -4.611,-8.374 c -0.0706,-0.106 -0.1413,-0.159 -0.212,-0.159 -0.0706,0 -0.106,0.0707 -0.106,0.212 v 25.016 c 0,0.176667 -0.0618,0.326833 -0.1855,0.4505 C 59.8752,-0.0618333 59.725,0 59.5483,0 h -4.876 C 54.4957,0 54.3455,-0.0618333 54.2218,-0.1855 54.0982,-0.309167 54.0363,-0.459333 54.0363,-0.636 v -35.828 c 0,-0.1767 0.0619,-0.3268 0.1855,-0.4505 0.1237,-0.1237 0.2739,-0.1855 0.4505,-0.1855 h 4.876 c 0.3534,0 0.6184,0.1413 0.795,0.424 l 5.141,9.063 c 0.106,0.1413 0.212,0.1413 0.318,0 z m 20.7697,37.1 c -2.9327,0 -5.3,-0.883333 -7.102,-2.65 -1.802,-1.76667 -2.703,-4.081 -2.703,-6.943 v -1.378 c 0,-0.1767 0.0618,-0.3268 0.1855,-0.4505 0.1237,-0.1237 0.2738,-0.1855 0.4505,-0.1855 h 4.823 c 0.1767,0 0.3268,0.0618 0.4505,0.1855 0.1237,0.1237 0.1855,0.2738 0.1855,0.4505 v 1.06 c 0,1.378 0.3445,2.491 1.0335,3.339 0.689,0.848 1.5812,1.272 2.6765,1.272 1.0953,0 1.9963,-0.3975 2.703,-1.1925 0.7067,-0.795 1.06,-1.84617 1.06,-3.1535 0,-0.9187 -0.1943,-1.7137 -0.583,-2.385 -0.3887,-0.6713 -0.9363,-1.3073 -1.643,-1.908 -0.7067,-0.6007 -1.8373,-1.4663 -3.392,-2.597 -1.7667,-1.272 -3.1888,-2.4027 -4.2665,-3.392 -1.0777,-0.9893 -1.9787,-2.1818 -2.703,-3.5775 -0.7243,-1.3957 -1.0865,-3.0122 -1.0865,-4.8495 0,-2.9327 0.8833,-5.2647 2.65,-6.996 1.7667,-1.7313 4.0987,-2.597 6.996,-2.597 2.9327,0 5.3,0.9098 7.102,2.7295 1.802,1.8197 2.703,4.2312 2.703,7.2345 v 1.272 c 0,0.1767 -0.062,0.3268 -0.185,0.4505 -0.124,0.1237 -0.274,0.1855 -0.451,0.1855 h -4.77 c -0.1767,0 -0.3268,-0.0618 -0.4505,-0.1855 -0.1237,-0.1237 -0.1855,-0.2738 -0.1855,-0.4505 v -1.378 c 0,-1.378 -0.3445,-2.4822 -1.0335,-3.3125 -0.689,-0.8303 -1.5988,-1.2455 -2.7295,-1.2455 -1.06,0 -1.9257,0.3798 -2.597,1.1395 -0.6713,0.7597 -1.007,1.8108 -1.007,3.1535 0,1.272 0.3622,2.3497 1.0865,3.233 0.7243,0.8833 2.1465,2.1023 4.2665,3.657 2.1553,1.59 3.7807,2.8885 4.876,3.8955 1.0953,1.007 1.9433,2.1112 2.544,3.3125 0.601,1.2013 0.901,2.6323 0.901,4.293 0,3.00333 -0.901,5.41483 -2.703,7.2345 -1.802,1.819667 -4.1693,2.7295 -7.102,2.7295 z M 121.081,0 c -0.424,0 -0.654,-0.194333 -0.689,-0.583 l -1.007,-5.565 c 0,-0.17667 -0.106,-0.265 -0.318,-0.265 h -7.738 c -0.212,0 -0.318,0.08833 -0.318,0.265 l -1.007,5.565 C 109.968,-0.194333 109.739,0 109.315,0 h -4.823 c -0.495,0 -0.689,-0.229667 -0.583,-0.689 l 7.844,-35.828 c 0.07,-0.3887 0.3,-0.583 0.689,-0.583 h 5.618 c 0.388,0 0.618,0.1943 0.689,0.583 l 7.844,35.828 v 0.212 c 0,0.318 -0.195,0.477 -0.583,0.477 z m -9.116,-11.501 c -0.036,0.1767 0.053,0.265 0.265,0.265 h 5.883 c 0.212,0 0.3,-0.0883 0.265,-0.265 l -3.074,-16.748 c -0.036,-0.106 -0.089,-0.159 -0.159,-0.159 -0.071,0 -0.124,0.053 -0.159,0.159 z m 33.449,-24.963 c 0,-0.1767 0.062,-0.3268 0.186,-0.4505 0.123,-0.1237 0.273,-0.1855 0.45,-0.1855 h 4.823 c 0.177,0 0.327,0.0618 0.451,0.1855 0.123,0.1237 0.185,0.2738 0.185,0.4505 v 35.828 c 0,0.176667 -0.062,0.326833 -0.185,0.4505 C 151.2,-0.0618333 151.05,0 150.873,0 h -5.565 c -0.353,0 -0.583,-0.176667 -0.689,-0.53 l -7.897,-22.472 c -0.035,-0.106 -0.097,-0.1502 -0.185,-0.1325 -0.089,0.0177 -0.133,0.0795 -0.133,0.1855 l 0.053,22.313 c 0,0.176667 -0.062,0.326833 -0.185,0.4505 C 136.148,-0.0618333 135.998,0 135.821,0 h -4.823 c -0.177,0 -0.327,-0.0618333 -0.45,-0.1855 -0.124,-0.123667 -0.186,-0.273833 -0.186,-0.4505 v -35.828 c 0,-0.1767 0.062,-0.3268 0.186,-0.4505 0.123,-0.1237 0.273,-0.1855 0.45,-0.1855 h 5.459 c 0.353,0 0.583,0.1767 0.689,0.53 l 7.95,22.313 c 0.035,0.106 0.097,0.1502 0.186,0.1325 0.088,-0.0177 0.132,-0.0795 0.132,-0.1855 z m 41.112,4.028 c 0,0.1767 -0.062,0.3268 -0.186,0.4505 -0.124,0.1237 -0.274,0.1855 -0.45,0.1855 h -11.448 c -0.177,0 -0.265,0.0883 -0.265,0.265 v 10.017 c 0,0.1767 0.088,0.265 0.265,0.265 h 6.784 c 0.176,0 0.327,0.0618 0.45,0.1855 0.124,0.1237 0.186,0.2738 0.186,0.4505 v 4.081 c 0,0.1767 -0.062,0.3268 -0.186,0.4505 -0.123,0.1237 -0.274,0.1855 -0.45,0.1855 h -6.784 c -0.177,0 -0.265,0.0883 -0.265,0.265 v 10.07 c 0,0.17667 0.088,0.265 0.265,0.265 h 11.448 c 0.176,0 0.326,0.06183 0.45,0.1855 0.124,0.12367 0.186,0.27383 0.186,0.4505 v 4.028 c 0,0.176667 -0.062,0.326833 -0.186,0.4505 C 186.216,-0.0618333 186.066,0 185.89,0 h -17.225 c -0.177,0 -0.327,-0.0618333 -0.451,-0.1855 -0.124,-0.123667 -0.185,-0.273833 -0.185,-0.4505 v -35.828 c 0,-0.1767 0.061,-0.3268 0.185,-0.4505 0.124,-0.1237 0.274,-0.1855 0.451,-0.1855 h 17.225 c 0.176,0 0.326,0.0618 0.45,0.1855 0.124,0.1237 0.186,0.2738 0.186,0.4505 z M 191.195,0 c -0.176,0 -0.327,-0.0618333 -0.45,-0.1855 -0.124,-0.123667 -0.186,-0.273833 -0.186,-0.4505 v -35.828 c 0,-0.1767 0.062,-0.3268 0.186,-0.4505 0.123,-0.1237 0.274,-0.1855 0.45,-0.1855 h 4.876 c 0.177,0 0.327,0.0618 0.451,0.1855 0.124,0.1237 0.185,0.2738 0.185,0.4505 v 35.828 c 0,0.176667 -0.061,0.326833 -0.185,0.4505 C 196.398,-0.0618333 196.248,0 196.071,0 Z m 28.581,-11.925 c 0,0.1767 -0.062,0.3268 -0.185,0.4505 -0.124,0.1237 -0.274,0.1855 -0.451,0.1855 h -11.713 c -0.177,0 -0.265,0.0883 -0.265,0.265 v 2.385 c 0,1.09533 0.3,1.99633 0.901,2.703 0.601,0.70667 1.378,1.06 2.332,1.06 0.813,0 1.511,-0.25617 2.094,-0.7685 0.583,-0.51233 0.962,-1.17483 1.139,-1.9875 0.106,-0.35333 0.336,-0.53 0.689,-0.53 l 4.717,0.212 c 0.177,0 0.327,0.06183 0.451,0.1855 0.123,0.12367 0.167,0.2915 0.132,0.5035 -0.247,2.47333 -1.148,4.3725 -2.703,5.6975 -1.555,1.325 -3.728,1.9875 -6.519,1.9875 -2.897,0 -5.185,-0.7685 -6.863,-2.3055 -1.679,-1.537 -2.518,-3.6305 -2.518,-6.2805 v -10.759 c 0,-2.5793 0.839,-4.6552 2.518,-6.2275 1.678,-1.5723 3.966,-2.3585 6.863,-2.3585 2.897,0 5.185,0.7862 6.864,2.3585 1.678,1.5723 2.517,3.6482 2.517,6.2275 z m -9.381,-10.282 c -0.954,0 -1.731,0.3533 -2.332,1.06 -0.601,0.7067 -0.901,1.6077 -0.901,2.703 v 2.385 c 0,0.1767 0.088,0.265 0.265,0.265 h 5.989 c 0.177,0 0.265,-0.0883 0.265,-0.265 v -2.385 c 0,-1.1307 -0.3,-2.0405 -0.901,-2.7295 -0.601,-0.689 -1.396,-1.0335 -2.385,-1.0335 z m 37.295,-5.3 c 2.296,0 4.037,0.8038 5.22,2.4115 1.184,1.6077 1.776,3.8425 1.776,6.7045 v 17.755 c 0,0.176667 -0.062,0.326833 -0.186,0.4505 C 254.376,-0.0618333 254.226,0 254.05,0 h -4.823 c -0.177,0 -0.327,-0.0618333 -0.451,-0.1855 -0.123,-0.123667 -0.185,-0.273833 -0.185,-0.4505 v -17.331 c 0,-1.3427 -0.265,-2.385 -0.795,-3.127 -0.53,-0.742 -1.255,-1.113 -2.173,-1.113 -0.99,0 -1.767,0.371 -2.332,1.113 -0.566,0.742 -0.848,1.7667 -0.848,3.074 v 17.384 c 0,0.176667 -0.062,0.326833 -0.186,0.4505 C 242.134,-0.0618333 241.983,0 241.807,0 h -4.823 c -0.177,0 -0.327,-0.0618333 -0.451,-0.1855 -0.123,-0.123667 -0.185,-0.273833 -0.185,-0.4505 v -17.331 c 0,-1.3427 -0.274,-2.385 -0.822,-3.127 -0.547,-0.742 -1.263,-1.113 -2.146,-1.113 -0.99,0 -1.767,0.371 -2.332,1.113 -0.566,0.742 -0.848,1.7667 -0.848,3.074 v 17.384 c 0,0.176667 -0.062,0.326833 -0.186,0.4505 C 229.891,-0.0618333 229.74,0 229.564,0 h -4.823 c -0.177,0 -0.327,-0.0618333 -0.451,-0.1855 -0.123,-0.123667 -0.185,-0.273833 -0.185,-0.4505 v -25.811 c 0,-0.1767 0.062,-0.3268 0.185,-0.4505 0.124,-0.1237 0.274,-0.1855 0.451,-0.1855 h 4.823 c 0.176,0 0.327,0.0618 0.45,0.1855 0.124,0.1237 0.186,0.2738 0.186,0.4505 v 0.848 c 0,0.106 0.035,0.1767 0.106,0.212 0.07,0.0353 0.141,0 0.212,-0.106 0.706,-0.7067 1.501,-1.219 2.385,-1.537 0.883,-0.318 1.749,-0.477 2.597,-0.477 2.614,0 4.54,1.113 5.777,3.339 0.106,0.1413 0.265,0.0883 0.477,-0.159 0.706,-1.1307 1.599,-1.9433 2.676,-2.438 1.078,-0.4947 2.164,-0.742 3.26,-0.742 z m 30.253,15.582 c 0,0.1767 -0.062,0.3268 -0.186,0.4505 -0.123,0.1237 -0.274,0.1855 -0.45,0.1855 h -11.713 c -0.177,0 -0.265,0.0883 -0.265,0.265 v 2.385 c 0,1.09533 0.3,1.99633 0.901,2.703 0.6,0.70667 1.378,1.06 2.332,1.06 0.812,0 1.51,-0.25617 2.093,-0.7685 0.583,-0.51233 0.963,-1.17483 1.14,-1.9875 0.106,-0.35333 0.335,-0.53 0.689,-0.53 l 4.717,0.212 c 0.176,0 0.327,0.06183 0.45,0.1855 0.124,0.12367 0.168,0.2915 0.133,0.5035 -0.248,2.47333 -1.149,4.3725 -2.703,5.6975 -1.555,1.325 -3.728,1.9875 -6.519,1.9875 -2.898,0 -5.185,-0.7685 -6.864,-2.3055 -1.678,-1.537 -2.517,-3.6305 -2.517,-6.2805 v -10.759 c 0,-2.5793 0.839,-4.6552 2.517,-6.2275 1.679,-1.5723 3.966,-2.3585 6.864,-2.3585 2.897,0 5.185,0.7862 6.863,2.3585 1.679,1.5723 2.518,3.6482 2.518,6.2275 z m -9.381,-10.282 c -0.954,0 -1.732,0.3533 -2.332,1.06 -0.601,0.7067 -0.901,1.6077 -0.901,2.703 v 2.385 c 0,0.1767 0.088,0.265 0.265,0.265 h 5.989 c 0.176,0 0.265,-0.0883 0.265,-0.265 v -2.385 c 0,-1.1307 -0.301,-2.0405 -0.901,-2.7295 -0.601,-0.689 -1.396,-1.0335 -2.385,-1.0335 z m 25.316,-5.3 c 2.297,0 4.037,0.7685 5.221,2.3055 1.183,1.537 1.775,3.7188 1.775,6.5455 v 18.02 c 0,0.176667 -0.062,0.326833 -0.185,0.4505 C 300.565,-0.0618333 300.415,0 300.238,0 h -4.876 c -0.176,0 -0.327,-0.0618333 -0.45,-0.1855 -0.124,-0.123667 -0.186,-0.273833 -0.186,-0.4505 v -17.543 c 0,-1.272 -0.265,-2.2613 -0.795,-2.968 -0.53,-0.7067 -1.289,-1.06 -2.279,-1.06 -1.024,0 -1.819,0.371 -2.385,1.113 -0.565,0.742 -0.848,1.7667 -0.848,3.074 v 17.384 c 0,0.176667 -0.061,0.326833 -0.185,0.4505 C 288.11,-0.0618333 287.96,0 287.783,0 h -4.876 c -0.176,0 -0.326,-0.0618333 -0.45,-0.1855 -0.124,-0.123667 -0.186,-0.273833 -0.186,-0.4505 v -25.811 c 0,-0.1767 0.062,-0.3268 0.186,-0.4505 0.124,-0.1237 0.274,-0.1855 0.45,-0.1855 h 4.876 c 0.177,0 0.327,0.0618 0.451,0.1855 0.124,0.1237 0.185,0.2738 0.185,0.4505 v 1.06 c 0,0.106 0.045,0.1678 0.133,0.1855 0.088,0.0177 0.185,-0.0442 0.291,-0.1855 1.202,-1.4133 2.88,-2.12 5.035,-2.12 z m 23.069,4.134 c 0,0.1767 -0.062,0.3268 -0.186,0.4505 -0.123,0.1237 -0.274,0.1855 -0.45,0.1855 h -3.286 c -0.177,0 -0.265,0.0883 -0.265,0.265 v 13.886 c 0,1.23667 0.229,2.0935 0.689,2.5705 0.459,0.477 1.148,0.69783 2.067,0.6625 h 0.371 c 0.176,0 0.327,0.06183 0.45,0.1855 0.124,0.12367 0.186,0.27383 0.186,0.4505 v 4.081 c 0,0.176667 -0.062,0.326833 -0.186,0.4505 C 316.214,-0.0618333 316.063,0 315.887,0 h -1.802 c -2.403,0 -4.214,-0.441667 -5.433,-1.325 -1.219,-0.88333 -1.828,-2.544 -1.828,-4.982 v -16.165 c 0,-0.1767 -0.089,-0.265 -0.265,-0.265 h -1.855 c -0.177,0 -0.327,-0.0618 -0.451,-0.1855 -0.123,-0.1237 -0.185,-0.2738 -0.185,-0.4505 v -3.074 c 0,-0.1767 0.062,-0.3268 0.185,-0.4505 0.124,-0.1237 0.274,-0.1855 0.451,-0.1855 h 1.855 c 0.176,0 0.265,-0.0883 0.265,-0.265 v -5.83 c 0,-0.1767 0.061,-0.3268 0.185,-0.4505 0.124,-0.1237 0.274,-0.1855 0.451,-0.1855 h 4.664 c 0.176,0 0.327,0.0618 0.45,0.1855 0.124,0.1237 0.186,0.2738 0.186,0.4505 v 5.83 c 0,0.1767 0.088,0.265 0.265,0.265 h 3.286 c 0.176,0 0.327,0.0618 0.45,0.1855 0.124,0.1237 0.186,0.2738 0.186,0.4505 z M 340.44,0.424 c -2.932,0 -5.3,-0.883333 -7.102,-2.65 -1.802,-1.76667 -2.703,-4.081 -2.703,-6.943 v -1.378 c 0,-0.1767 0.062,-0.3268 0.186,-0.4505 0.123,-0.1237 0.274,-0.1855 0.45,-0.1855 h 4.823 c 0.177,0 0.327,0.0618 0.451,0.1855 0.123,0.1237 0.185,0.2738 0.185,0.4505 v 1.06 c 0,1.378 0.345,2.491 1.034,3.339 0.689,0.848 1.581,1.272 2.676,1.272 1.096,0 1.997,-0.3975 2.703,-1.1925 0.707,-0.795 1.06,-1.84617 1.06,-3.1535 0,-0.9187 -0.194,-1.7137 -0.583,-2.385 -0.388,-0.6713 -0.936,-1.3073 -1.643,-1.908 -0.706,-0.6007 -1.837,-1.4663 -3.392,-2.597 -1.766,-1.272 -3.189,-2.4027 -4.266,-3.392 -1.078,-0.9893 -1.979,-2.1818 -2.703,-3.5775 -0.724,-1.3957 -1.087,-3.0122 -1.087,-4.8495 0,-2.9327 0.884,-5.2647 2.65,-6.996 1.767,-1.7313 4.099,-2.597 6.996,-2.597 2.933,0 5.3,0.9098 7.102,2.7295 1.802,1.8197 2.703,4.2312 2.703,7.2345 v 1.272 c 0,0.1767 -0.061,0.3268 -0.185,0.4505 -0.124,0.1237 -0.274,0.1855 -0.451,0.1855 h -4.77 c -0.176,0 -0.327,-0.0618 -0.45,-0.1855 -0.124,-0.1237 -0.186,-0.2738 -0.186,-0.4505 v -1.378 c 0,-1.378 -0.344,-2.4822 -1.033,-3.3125 -0.689,-0.8303 -1.599,-1.2455 -2.73,-1.2455 -1.06,0 -1.925,0.3798 -2.597,1.1395 -0.671,0.7597 -1.007,1.8108 -1.007,3.1535 0,1.272 0.363,2.3497 1.087,3.233 0.724,0.8833 2.146,2.1023 4.266,3.657 2.156,1.59 3.781,2.8885 4.876,3.8955 1.096,1.007 1.944,2.1112 2.544,3.3125 0.601,1.2013 0.901,2.6323 0.901,4.293 0,3.00333 -0.901,5.41483 -2.703,7.2345 -1.802,1.819667 -4.169,2.7295 -7.102,2.7295 z M 364.31,0 c -0.212,0 -0.371,-0.0706667 -0.477,-0.212 -0.106,-0.141333 -0.124,-0.318 -0.053,-0.53 l 10.865,-35.828 c 0.106,-0.3533 0.335,-0.53 0.689,-0.53 h 4.876 c 0.212,0 0.371,0.0707 0.477,0.212 0.106,0.1413 0.123,0.318 0.053,0.53 L 369.875,-0.53 C 369.769,-0.176667 369.539,0 369.186,0 Z m 41.297,0.424 c -2.933,0 -5.3,-0.883333 -7.102,-2.65 -1.802,-1.76667 -2.703,-4.081 -2.703,-6.943 v -1.378 c 0,-0.1767 0.062,-0.3268 0.185,-0.4505 0.124,-0.1237 0.274,-0.1855 0.451,-0.1855 h 4.823 c 0.177,0 0.327,0.0618 0.45,0.1855 0.124,0.1237 0.186,0.2738 0.186,0.4505 v 1.06 c 0,1.378 0.344,2.491 1.033,3.339 0.689,0.848 1.582,1.272 2.677,1.272 1.095,0 1.996,-0.3975 2.703,-1.1925 0.707,-0.795 1.06,-1.84617 1.06,-3.1535 0,-0.9187 -0.194,-1.7137 -0.583,-2.385 -0.389,-0.6713 -0.936,-1.3073 -1.643,-1.908 -0.707,-0.6007 -1.837,-1.4663 -3.392,-2.597 -1.767,-1.272 -3.189,-2.4027 -4.267,-3.392 -1.077,-0.9893 -1.978,-2.1818 -2.703,-3.5775 -0.724,-1.3957 -1.086,-3.0122 -1.086,-4.8495 0,-2.9327 0.883,-5.2647 2.65,-6.996 1.767,-1.7313 4.099,-2.597 6.996,-2.597 2.933,0 5.3,0.9098 7.102,2.7295 1.802,1.8197 2.703,4.2312 2.703,7.2345 v 1.272 c 0,0.1767 -0.062,0.3268 -0.186,0.4505 -0.123,0.1237 -0.273,0.1855 -0.45,0.1855 h -4.77 c -0.177,0 -0.327,-0.0618 -0.451,-0.1855 -0.123,-0.1237 -0.185,-0.2738 -0.185,-0.4505 v -1.378 c 0,-1.378 -0.345,-2.4822 -1.034,-3.3125 -0.689,-0.8303 -1.598,-1.2455 -2.729,-1.2455 -1.06,0 -1.926,0.3798 -2.597,1.1395 -0.671,0.7597 -1.007,1.8108 -1.007,3.1535 0,1.272 0.362,2.3497 1.086,3.233 0.725,0.8833 2.147,2.1023 4.267,3.657 2.155,1.59 3.781,2.8885 4.876,3.8955 1.095,1.007 1.943,2.1112 2.544,3.3125 0.601,1.2013 0.901,2.6323 0.901,4.293 0,3.00333 -0.901,5.41483 -2.703,7.2345 -1.802,1.819667 -4.169,2.7295 -7.102,2.7295 z m 32.813,-19.398 c 0.176,0 0.326,0.0618 0.45,0.1855 0.124,0.1237 0.186,0.2738 0.186,0.4505 v 3.392 c 0,0.1767 -0.062,0.3268 -0.186,0.4505 -0.124,0.1237 -0.274,0.1855 -0.45,0.1855 h -6.996 c -0.177,0 -0.265,0.0883 -0.265,0.265 v 6.996 c 0,0.17667 -0.062,0.32683 -0.186,0.4505 -0.124,0.12367 -0.274,0.1855 -0.45,0.1855 h -3.392 c -0.177,0 -0.327,-0.06183 -0.451,-0.1855 -0.124,-0.12367 -0.185,-0.27383 -0.185,-0.4505 v -6.996 c 0,-0.1767 -0.089,-0.265 -0.265,-0.265 h -6.996 c -0.177,0 -0.327,-0.0618 -0.451,-0.1855 -0.124,-0.1237 -0.185,-0.2738 -0.185,-0.4505 v -3.392 c 0,-0.1767 0.061,-0.3268 0.185,-0.4505 0.124,-0.1237 0.274,-0.1855 0.451,-0.1855 h 6.996 c 0.176,0 0.265,-0.0883 0.265,-0.265 v -6.996 c 0,-0.1767 0.061,-0.3268 0.185,-0.4505 0.124,-0.1237 0.274,-0.1855 0.451,-0.1855 h 3.392 c 0.176,0 0.326,0.0618 0.45,0.1855 0.124,0.1237 0.186,0.2738 0.186,0.4505 v 6.996 c 0,0.1767 0.088,0.265 0.265,0.265 z"
             transform="translate(36.084,73)"
             id="path220" />
        </g>
      </g>
      <text
         font-family="'Barlow Condensed SemiBold', 'Barlow Condensed SemiBold_MSFontService', sans-serif"
         font-weight="600"
         font-stretch="condensed"
         font-size="53px"
         transform="translate(902.122,257)"
         id="text226">NAMSAN Element S / S+</text>
      <g
         clip-path="url(#clip4-7)"
         id="g244">
        <g
           clip-path="url(#clip5-7)"
           id="g242">
          <g
             clip-path="url(#clip6-4)"
             id="g240">
            <path
               d="m 183.837,-38.6191 c -0.55,2.7669 -1.325,5.5142 -2.326,8.2419 l -4.739,12.6571 h 14.63 l -4.504,-11.9507 c -1.374,-3.6303 -2.394,-6.6131 -3.061,-8.9483 z m -126.0475,0 c -0.5494,2.7669 -1.3245,5.5142 -2.3254,8.2419 l -4.739,12.6571 h 14.6293 l -4.5036,-11.9507 c -1.3736,-3.6303 -2.3941,-6.6131 -3.0613,-8.9483 z m 314.2195,-4.5331 h 5.71 v 17.7201 h 22.43 v -17.7201 h 5.71 V 0 h -5.71 v -20.3398 h -22.43 V 0 h -5.71 z m -71.303,0 h 31.201 v 5.0924 h -25.491 v 13.2164 h 23.872 v 5.0629 h -23.872 v 14.68819 h 26.492 V 0 h -32.202 z m -36.238,0 h 34.204 v 5.0924 H 284.396 V 0 h -5.711 v -38.0598 h -14.217 z m -51.624,0 h 5.858 l 22.665,33.88008 V -43.1522 h 5.475 V 0 h -5.858 L 218.319,-33.9095 V 0 h -5.475 z m -31.951,0 h 6.152 L 204.706,0 h -6.505 l -5.033,-13.0693 H 175.124 L 170.385,0 h -6.064 z m -94.2141,0 h 8.5952 l 10.2139,30.5539 c 0.942,2.8454 1.629,4.97456 2.061,6.38745 0.49,-1.56988 1.255,-3.87565 2.296,-6.91725 l 10.331,-30.0241 h 7.683 V 0 h -5.504 V -36.1171 L 109.815,0 h -5.151 L 92.1834,-36.7353 V 0 h -5.5045 z m -82.08699,0 H 10.4495 L 33.1147,-9.27212 V -43.1522 h 5.475 V -0.822204 L 54.846,-43.1522 h 6.152 L 78.6592,0 H 72.154 L 67.1205,-13.0693 H 49.0767 L 44.3376,0 H 38.5897 38.2739 32.7321 L 10.0669,-33.9095 V 0 H 4.59191 Z M 352.191,-43.888 c 4.317,0 7.947,1.0989 10.891,3.2967 2.943,2.1978 4.994,5.2886 6.152,9.2721 l -5.622,1.3246 c -1.001,-3.1397 -2.453,-5.4259 -4.357,-6.8584 -1.903,-1.4325 -4.297,-2.1488 -7.182,-2.1488 -3.316,0 -6.088,0.7948 -8.315,2.3843 -2.228,1.5895 -3.793,3.7235 -4.695,6.4022 -0.903,2.6786 -1.354,5.4406 -1.354,8.286 0,3.6696 0.534,6.8731 1.604,9.6106 1.069,2.73751 2.732,4.78326 4.989,6.13729 2.257,1.35402 4.7,2.03103 7.329,2.03103 3.199,0 5.907,-0.9223 8.125,-2.76692 2.217,-1.84461 3.718,-4.5821 4.503,-8.2124 l 5.711,1.4423 c -1.197,4.69001 -3.351,8.2664 -6.461,10.72915 -3.111,2.462756 -6.913,3.694133 -11.407,3.694133 -4.65,0 -8.433,-0.946836 -11.347,-2.840503 -2.914,-1.89368 -5.131,-4.63606 -6.652,-8.22718 -1.521,-3.5911 -2.281,-7.4471 -2.281,-11.5681 0,-4.4938 0.858,-8.4136 2.575,-11.7594 1.717,-3.3458 4.16,-5.887 7.33,-7.6237 3.169,-1.7367 6.657,-2.605 10.464,-2.605 z m -206.599,0 c 3.199,0 6.02,0.5151 8.463,1.5453 2.443,1.0302 4.322,2.5462 5.637,4.5478 1.315,2.0016 2.021,4.2681 2.119,6.7995 l -5.475,0.4121 c -0.294,-2.7277 -1.29,-4.7881 -2.987,-6.1814 -1.698,-1.3933 -4.205,-2.0899 -7.521,-2.0899 -3.454,0 -5.971,0.6329 -7.55,1.8986 -1.58,1.2657 -2.37,2.7914 -2.37,4.5772 0,1.5502 0.559,2.8258 1.678,3.8266 1.099,1.0008 3.969,2.0261 8.61,3.0759 4.641,1.0499 7.825,1.9673 9.552,2.7522 2.511,1.1578 4.366,2.6247 5.563,4.4006 1.197,1.776 1.795,3.8217 1.795,6.1373 0,2.29594 -0.657,4.45943 -1.972,6.49047 -1.315,2.03103 -3.203,3.61073 -5.666,4.739083 -2.463,1.128353 -5.235,1.69253 -8.316,1.69253 -3.905,0 -7.177,-0.569083 -9.816,-1.707248 -2.64,-1.138165 -4.71,-2.850315 -6.211,-5.136465 -1.501,-2.28614 -2.291,-4.87157 -2.37,-7.75617 l 5.387,-0.471 c 0.255,2.1586 0.849,3.9296 1.781,5.31308 0.932,1.38346 2.379,2.502 4.342,3.35562 1.962,0.85363 4.17,1.28044 6.623,1.28044 2.178,0 4.101,-0.32379 5.769,-0.97137 1.668,-0.64757 2.909,-1.53554 3.723,-2.66389 0.815,-1.12835 1.222,-2.35978 1.222,-3.69418 0,-1.354 -0.392,-2.5363 -1.177,-3.5469 -0.785,-1.0106 -2.081,-1.8593 -3.886,-2.5462 -1.158,-0.4513 -3.719,-1.1528 -7.683,-2.1046 -3.963,-0.9517 -6.74,-1.8495 -8.33,-2.6933 -2.06,-1.0793 -3.596,-2.4186 -4.606,-4.0179 -1.011,-1.5993 -1.516,-3.39 -1.516,-5.372 0,-2.1782 0.618,-4.2141 1.854,-6.1078 1.236,-1.8937 3.042,-3.3311 5.416,-4.3123 2.375,-0.9812 5.014,-1.4717 7.918,-1.4717 z"
               stroke="#000000"
               stroke-width="1.45"
               fill-rule="evenodd"
               transform="matrix(1.0101,0,0,1,880.279,180.934)"
               id="path228" />
            <text
               fill="#000000"
               fill-opacity="0"
               font-family="Arial, Arial_MSFontService, sans-serif"
               font-size="44.6239px"
               x="4.5919099"
               y="-4.8421102"
               id="text230">NAMSAN TECH</text>
            <path
               d="m 183.837,-38.6191 c -0.55,2.7669 -1.325,5.5142 -2.326,8.2419 l -4.739,12.6571 h 14.63 l -4.504,-11.9507 c -1.374,-3.6303 -2.394,-6.6131 -3.061,-8.9483 z m -126.0475,0 c -0.5494,2.7669 -1.3245,5.5142 -2.3254,8.2419 l -4.739,12.6571 h 14.6293 l -4.5036,-11.9507 c -1.3736,-3.6303 -2.3941,-6.6131 -3.0613,-8.9483 z m 314.2195,-4.5331 h 5.71 v 17.7201 h 22.43 v -17.7201 h 5.71 V 0 h -5.71 v -20.3398 h -22.43 V 0 h -5.71 z m -71.303,0 h 31.201 v 5.0924 h -25.491 v 13.2164 h 23.872 v 5.0629 h -23.872 v 14.68819 h 26.492 V 0 h -32.202 z m -36.238,0 h 34.204 v 5.0924 H 284.396 V 0 h -5.711 v -38.0598 h -14.217 z m -51.624,0 h 5.858 l 22.665,33.88008 V -43.1522 h 5.475 V 0 h -5.858 L 218.319,-33.9095 V 0 h -5.475 z m -31.951,0 h 6.152 L 204.706,0 h -6.505 l -5.033,-13.0693 H 175.124 L 170.385,0 h -6.064 z m -94.2141,0 h 8.5952 l 10.2139,30.5539 c 0.942,2.8454 1.629,4.97456 2.061,6.38745 0.49,-1.56988 1.255,-3.87565 2.296,-6.91725 l 10.331,-30.0241 h 7.683 V 0 h -5.504 V -36.1171 L 109.815,0 h -5.151 L 92.1834,-36.7353 V 0 h -5.5045 z m -82.08699,0 H 10.4495 L 33.1147,-9.27212 V -43.1522 h 5.475 V -0.822204 L 54.846,-43.1522 h 6.152 L 78.6592,0 H 72.154 L 67.1205,-13.0693 H 49.0767 L 44.3376,0 H 38.5897 38.2739 32.7321 L 10.0669,-33.9095 V 0 H 4.59191 Z M 352.191,-43.888 c 4.317,0 7.947,1.0989 10.891,3.2967 2.943,2.1978 4.994,5.2886 6.152,9.2721 l -5.622,1.3246 c -1.001,-3.1397 -2.453,-5.4259 -4.357,-6.8584 -1.903,-1.4325 -4.297,-2.1488 -7.182,-2.1488 -3.316,0 -6.088,0.7948 -8.315,2.3843 -2.228,1.5895 -3.793,3.7235 -4.695,6.4022 -0.903,2.6786 -1.354,5.4406 -1.354,8.286 0,3.6696 0.534,6.8731 1.604,9.6106 1.069,2.73751 2.732,4.78326 4.989,6.13729 2.257,1.35402 4.7,2.03103 7.329,2.03103 3.199,0 5.907,-0.9223 8.125,-2.76692 2.217,-1.84461 3.718,-4.5821 4.503,-8.2124 l 5.711,1.4423 c -1.197,4.69001 -3.351,8.2664 -6.461,10.72915 -3.111,2.462756 -6.913,3.694133 -11.407,3.694133 -4.65,0 -8.433,-0.946836 -11.347,-2.840503 -2.914,-1.89368 -5.131,-4.63606 -6.652,-8.22718 -1.521,-3.5911 -2.281,-7.4471 -2.281,-11.5681 0,-4.4938 0.858,-8.4136 2.575,-11.7594 1.717,-3.3458 4.16,-5.887 7.33,-7.6237 3.169,-1.7367 6.657,-2.605 10.464,-2.605 z m -206.599,0 c 3.199,0 6.02,0.5151 8.463,1.5453 2.443,1.0302 4.322,2.5462 5.637,4.5478 1.315,2.0016 2.021,4.2681 2.119,6.7995 l -5.475,0.4121 c -0.294,-2.7277 -1.29,-4.7881 -2.987,-6.1814 -1.698,-1.3933 -4.205,-2.0899 -7.521,-2.0899 -3.454,0 -5.971,0.6329 -7.55,1.8986 -1.58,1.2657 -2.37,2.7914 -2.37,4.5772 0,1.5502 0.559,2.8258 1.678,3.8266 1.099,1.0008 3.969,2.0261 8.61,3.0759 4.641,1.0499 7.825,1.9673 9.552,2.7522 2.511,1.1578 4.366,2.6247 5.563,4.4006 1.197,1.776 1.795,3.8217 1.795,6.1373 0,2.29594 -0.657,4.45943 -1.972,6.49047 -1.315,2.03103 -3.203,3.61073 -5.666,4.739083 -2.463,1.128353 -5.235,1.69253 -8.316,1.69253 -3.905,0 -7.177,-0.569083 -9.816,-1.707248 -2.64,-1.138165 -4.71,-2.850315 -6.211,-5.136465 -1.501,-2.28614 -2.291,-4.87157 -2.37,-7.75617 l 5.387,-0.471 c 0.255,2.1586 0.849,3.9296 1.781,5.31308 0.932,1.38346 2.379,2.502 4.342,3.35562 1.962,0.85363 4.17,1.28044 6.623,1.28044 2.178,0 4.101,-0.32379 5.769,-0.97137 1.668,-0.64757 2.909,-1.53554 3.723,-2.66389 0.815,-1.12835 1.222,-2.35978 1.222,-3.69418 0,-1.354 -0.392,-2.5363 -1.177,-3.5469 -0.785,-1.0106 -2.081,-1.8593 -3.886,-2.5462 -1.158,-0.4513 -3.719,-1.1528 -7.683,-2.1046 -3.963,-0.9517 -6.74,-1.8495 -8.33,-2.6933 -2.06,-1.0793 -3.596,-2.4186 -4.606,-4.0179 -1.011,-1.5993 -1.516,-3.39 -1.516,-5.372 0,-2.1782 0.618,-4.2141 1.854,-6.1078 1.236,-1.8937 3.042,-3.3311 5.416,-4.3123 2.375,-0.9812 5.014,-1.4717 7.918,-1.4717 z"
               stroke="#fffffc"
               stroke-width="1.45"
               fill="#ffffff"
               fill-rule="evenodd"
               transform="matrix(1.0101,0,0,1,886.976,187.489)"
               id="path232" />
            <text
               fill="#000000"
               fill-opacity="0"
               font-family="Arial, Arial_MSFontService, sans-serif"
               font-size="44.6239px"
               x="4.5919099"
               y="-4.8421102"
               id="text234">NAMSAN TECH</text>
            <path
               d="m 183.837,-38.6191 c -0.55,2.7669 -1.325,5.5142 -2.326,8.2419 l -4.739,12.6571 h 14.63 l -4.504,-11.9507 c -1.374,-3.6303 -2.394,-6.6131 -3.061,-8.9483 z m -126.0475,0 c -0.5494,2.7669 -1.3245,5.5142 -2.3254,8.2419 l -4.739,12.6571 h 14.6293 l -4.5036,-11.9507 c -1.3736,-3.6303 -2.3941,-6.6131 -3.0613,-8.9483 z m 314.2195,-4.5331 h 5.71 v 17.7201 h 22.43 v -17.7201 h 5.71 V 0 h -5.71 v -20.3398 h -22.43 V 0 h -5.71 z m -71.303,0 h 31.201 v 5.0924 h -25.491 v 13.2164 h 23.872 v 5.0629 h -23.872 v 14.68819 h 26.492 V 0 h -32.202 z m -36.238,0 h 34.204 v 5.0924 H 284.396 V 0 h -5.711 v -38.0598 h -14.217 z m -51.624,0 h 5.858 l 22.665,33.88008 V -43.1522 h 5.475 V 0 h -5.858 L 218.319,-33.9095 V 0 h -5.475 z m -31.951,0 h 6.152 L 204.706,0 h -6.505 l -5.033,-13.0693 H 175.124 L 170.385,0 h -6.064 z m -94.2141,0 h 8.5952 l 10.2139,30.5539 c 0.942,2.8454 1.629,4.97456 2.061,6.38745 0.49,-1.56988 1.255,-3.87565 2.296,-6.91725 l 10.331,-30.0241 h 7.683 V 0 h -5.504 V -36.1171 L 109.815,0 h -5.151 L 92.1834,-36.7353 V 0 h -5.5045 z m -82.08699,0 H 10.4495 L 33.1147,-9.27212 V -43.1522 h 5.475 V -0.822204 L 54.846,-43.1522 h 6.152 L 78.6592,0 H 72.154 L 67.1205,-13.0693 H 49.0767 L 44.3376,0 H 38.5897 38.2739 32.7321 L 10.0669,-33.9095 V 0 H 4.59191 Z M 352.191,-43.888 c 4.317,0 7.947,1.0989 10.891,3.2967 2.943,2.1978 4.994,5.2886 6.152,9.2721 l -5.622,1.3246 c -1.001,-3.1397 -2.453,-5.4259 -4.357,-6.8584 -1.903,-1.4325 -4.297,-2.1488 -7.182,-2.1488 -3.316,0 -6.088,0.7948 -8.315,2.3843 -2.228,1.5895 -3.793,3.7235 -4.695,6.4022 -0.903,2.6786 -1.354,5.4406 -1.354,8.286 0,3.6696 0.534,6.8731 1.604,9.6106 1.069,2.73751 2.732,4.78326 4.989,6.13729 2.257,1.35402 4.7,2.03103 7.329,2.03103 3.199,0 5.907,-0.9223 8.125,-2.76692 2.217,-1.84461 3.718,-4.5821 4.503,-8.2124 l 5.711,1.4423 c -1.197,4.69001 -3.351,8.2664 -6.461,10.72915 -3.111,2.462756 -6.913,3.694133 -11.407,3.694133 -4.65,0 -8.433,-0.946836 -11.347,-2.840503 -2.914,-1.89368 -5.131,-4.63606 -6.652,-8.22718 -1.521,-3.5911 -2.281,-7.4471 -2.281,-11.5681 0,-4.4938 0.858,-8.4136 2.575,-11.7594 1.717,-3.3458 4.16,-5.887 7.33,-7.6237 3.169,-1.7367 6.657,-2.605 10.464,-2.605 z m -206.599,0 c 3.199,0 6.02,0.5151 8.463,1.5453 2.443,1.0302 4.322,2.5462 5.637,4.5478 1.315,2.0016 2.021,4.2681 2.119,6.7995 l -5.475,0.4121 c -0.294,-2.7277 -1.29,-4.7881 -2.987,-6.1814 -1.698,-1.3933 -4.205,-2.0899 -7.521,-2.0899 -3.454,0 -5.971,0.6329 -7.55,1.8986 -1.58,1.2657 -2.37,2.7914 -2.37,4.5772 0,1.5502 0.559,2.8258 1.678,3.8266 1.099,1.0008 3.969,2.0261 8.61,3.0759 4.641,1.0499 7.825,1.9673 9.552,2.7522 2.511,1.1578 4.366,2.6247 5.563,4.4006 1.197,1.776 1.795,3.8217 1.795,6.1373 0,2.29594 -0.657,4.45943 -1.972,6.49047 -1.315,2.03103 -3.203,3.61073 -5.666,4.739083 -2.463,1.128353 -5.235,1.69253 -8.316,1.69253 -3.905,0 -7.177,-0.569083 -9.816,-1.707248 -2.64,-1.138165 -4.71,-2.850315 -6.211,-5.136465 -1.501,-2.28614 -2.291,-4.87157 -2.37,-7.75617 l 5.387,-0.471 c 0.255,2.1586 0.849,3.9296 1.781,5.31308 0.932,1.38346 2.379,2.502 4.342,3.35562 1.962,0.85363 4.17,1.28044 6.623,1.28044 2.178,0 4.101,-0.32379 5.769,-0.97137 1.668,-0.64757 2.909,-1.53554 3.723,-2.66389 0.815,-1.12835 1.222,-2.35978 1.222,-3.69418 0,-1.354 -0.392,-2.5363 -1.177,-3.5469 -0.785,-1.0106 -2.081,-1.8593 -3.886,-2.5462 -1.158,-0.4513 -3.719,-1.1528 -7.683,-2.1046 -3.963,-0.9517 -6.74,-1.8495 -8.33,-2.6933 -2.06,-1.0793 -3.596,-2.4186 -4.606,-4.0179 -1.011,-1.5993 -1.516,-3.39 -1.516,-5.372 0,-2.1782 0.618,-4.2141 1.854,-6.1078 1.236,-1.8937 3.042,-3.3311 5.416,-4.3123 2.375,-0.9812 5.014,-1.4717 7.918,-1.4717 z"
               stroke="#000000"
               stroke-width="1.45"
               fill-rule="evenodd"
               transform="matrix(1.0101,0,0,1,891.137,194.755)"
               id="path236" />
            <text
               fill="#000000"
               fill-opacity="0"
               font-family="Arial, Arial_MSFontService, sans-serif"
               font-size="44.6239px"
               x="4.5919099"
               y="-4.8421102"
               id="text238">NAMSAN TECH</text>
          </g>
        </g>
      </g>
    </g>
  </g>
</svg>
