<?xml version="1.0" encoding="UTF-8" standalone="no"?>
<!-- Created with Inkscape (http://www.inkscape.org/) -->

<svg
   width="210mm"
   height="297mm"
   viewBox="0 0 210 297"
   version="1.1"
   id="svg344"
   inkscape:version="1.1 (c68e22c387, 2021-05-23)"
   sodipodi:docname="PhoneName.svg"
   xmlns:inkscape="http://www.inkscape.org/namespaces/inkscape"
   xmlns:sodipodi="http://sodipodi.sourceforge.net/DTD/sodipodi-0.dtd"
   xmlns="http://www.w3.org/2000/svg"
   xmlns:svg="http://www.w3.org/2000/svg">
  <sodipodi:namedview
     id="namedview346"
     pagecolor="#ffffff"
     bordercolor="#111111"
     borderopacity="1"
     inkscape:pageshadow="0"
     inkscape:pageopacity="0"
     inkscape:pagecheckerboard="1"
     inkscape:document-units="mm"
     showgrid="false"
     inkscape:zoom="0.94430415"
     inkscape:cx="500.36844"
     inkscape:cy="555.43545"
     inkscape:window-width="1366"
     inkscape:window-height="715"
     inkscape:window-x="-8"
     inkscape:window-y="-8"
     inkscape:window-maximized="1"
     inkscape:current-layer="g597" />
  <defs
     id="defs341">
    <filter
       id="fx0"
       x="-10%"
       y="-10%"
       width="120%"
       height="120%"
       filterUnits="userSpaceOnUse"
       primitiveUnits="userSpaceOnUse">
      <feComponentTransfer
         color-interpolation-filters="sRGB"
         id="feComponentTransfer356">
        <feFuncR
           type="discrete"
           tableValues="0 0"
           id="feFuncR348" />
        <feFuncG
           type="discrete"
           tableValues="0 0"
           id="feFuncG350" />
        <feFuncB
           type="discrete"
           tableValues="0 0"
           id="feFuncB352" />
        <feFuncA
           type="linear"
           slope="0.431373"
           intercept="0"
           id="feFuncA354" />
      </feComponentTransfer>
      <feGaussianBlur
         stdDeviation="0.925077 0.925077"
         id="feGaussianBlur358" />
    </filter>
    <clipPath
       id="clip1">
      <rect
         x="869"
         y="138"
         width="511"
         height="167"
         id="rect361" />
    </clipPath>
    <clipPath
       id="clip2">
      <rect
         x="35"
         y="32"
         width="444"
         height="44"
         id="rect364" />
    </clipPath>
    <clipPath
       id="clip3">
      <rect
         x="0"
         y="0"
         width="513"
         height="120"
         id="rect367" />
    </clipPath>
    <clipPath
       id="clip4">
      <rect
         x="886"
         y="138"
         width="435"
         height="58"
         id="rect370" />
    </clipPath>
    <clipPath
       id="clip5">
      <rect
         x="886"
         y="138"
         width="435"
         height="58"
         id="rect373" />
    </clipPath>
    <clipPath
       id="clip6">
      <rect
         x="886"
         y="138"
         width="435"
         height="58"
         id="rect376" />
    </clipPath>
    <clipPath
       id="clip0">
      <rect
         x="870"
         y="138"
         width="505"
         height="162"
         id="rect563" />
    </clipPath>
    <clipPath
       id="clip1-8">
      <rect
         x="886"
         y="138"
         width="435"
         height="58"
         id="rect566" />
    </clipPath>
    <clipPath
       id="clip2-2">
      <rect
         x="886"
         y="138"
         width="435"
         height="58"
         id="rect569" />
    </clipPath>
    <clipPath
       id="clip3-6">
      <rect
         x="886"
         y="138"
         width="435"
         height="58"
         id="rect572" />
    </clipPath>
  </defs>
  <g
     inkscape:label="Layer 1"
     inkscape:groupmode="layer"
     id="layer1">
    <g
       clip-path="url(#clip0)"
       transform="matrix(0.26458333,0,0,0.26458333,-186.15405,91.705681)"
       id="g597">
      <text
         font-family="'Barlow Condensed SemiBold', 'Barlow Condensed SemiBold_MSFontService', sans-serif"
         font-weight="600"
         font-stretch="condensed"
         font-size="53px"
         id="text577"
         transform="translate(902.122,257)"><tspan
           style="font-style:normal;font-variant:normal;font-weight:500;font-stretch:condensed;font-family:'Barlow Condensed';-inkscape-font-specification:'Barlow Condensed,  Medium Condensed'"
           id="tspan13322">NAMSAN Element S/S+</tspan></text>
      <g
         clip-path="url(#clip1-8)"
         id="g595">
        <g
           clip-path="url(#clip2-2)"
           id="g593">
          <g
             clip-path="url(#clip3-6)"
             id="g591">
            <path
               d="m 183.837,-38.6191 c -0.55,2.7669 -1.325,5.5142 -2.326,8.2419 l -4.739,12.6571 h 14.63 l -4.504,-11.9507 c -1.374,-3.6303 -2.394,-6.6131 -3.061,-8.9483 z m -126.0475,0 c -0.5494,2.7669 -1.3245,5.5142 -2.3254,8.2419 l -4.739,12.6571 h 14.6293 l -4.5036,-11.9507 c -1.3736,-3.6303 -2.3941,-6.6131 -3.0613,-8.9483 z m 314.2195,-4.5331 h 5.71 v 17.7201 h 22.43 v -17.7201 h 5.71 V 0 h -5.71 v -20.3398 h -22.43 V 0 h -5.71 z m -71.303,0 h 31.201 v 5.0924 h -25.491 v 13.2164 h 23.872 v 5.0629 h -23.872 v 14.68819 h 26.492 V 0 h -32.202 z m -36.238,0 h 34.204 v 5.0924 H 284.396 V 0 h -5.711 v -38.0598 h -14.217 z m -51.624,0 h 5.858 l 22.665,33.88008 V -43.1522 h 5.475 V 0 h -5.858 L 218.319,-33.9095 V 0 h -5.475 z m -31.951,0 h 6.152 L 204.706,0 h -6.505 l -5.033,-13.0693 H 175.124 L 170.385,0 h -6.064 z m -94.2141,0 h 8.5952 l 10.2139,30.5539 c 0.942,2.8454 1.629,4.97456 2.061,6.38745 0.49,-1.56988 1.255,-3.87565 2.296,-6.91725 l 10.331,-30.0241 h 7.683 V 0 h -5.504 V -36.1171 L 109.815,0 h -5.151 L 92.1834,-36.7353 V 0 h -5.5045 z m -82.08699,0 H 10.4495 L 33.1147,-9.27212 V -43.1522 h 5.475 V -0.822204 L 54.846,-43.1522 h 6.152 L 78.6592,0 H 72.154 L 67.1205,-13.0693 H 49.0767 L 44.3376,0 H 38.5897 38.2739 32.7321 L 10.0669,-33.9095 V 0 H 4.59191 Z M 352.191,-43.888 c 4.317,0 7.947,1.0989 10.891,3.2967 2.943,2.1978 4.994,5.2886 6.152,9.2721 l -5.622,1.3246 c -1.001,-3.1397 -2.453,-5.4259 -4.357,-6.8584 -1.903,-1.4325 -4.297,-2.1488 -7.182,-2.1488 -3.316,0 -6.088,0.7948 -8.315,2.3843 -2.228,1.5895 -3.793,3.7235 -4.695,6.4022 -0.903,2.6786 -1.354,5.4406 -1.354,8.286 0,3.6696 0.534,6.8731 1.604,9.6106 1.069,2.73751 2.732,4.78326 4.989,6.13729 2.257,1.35402 4.7,2.03103 7.329,2.03103 3.199,0 5.907,-0.9223 8.125,-2.76692 2.217,-1.84461 3.718,-4.5821 4.503,-8.2124 l 5.711,1.4423 c -1.197,4.69001 -3.351,8.2664 -6.461,10.72915 -3.111,2.462756 -6.913,3.694133 -11.407,3.694133 -4.65,0 -8.433,-0.946836 -11.347,-2.840503 -2.914,-1.89368 -5.131,-4.63606 -6.652,-8.22718 -1.521,-3.5911 -2.281,-7.4471 -2.281,-11.5681 0,-4.4938 0.858,-8.4136 2.575,-11.7594 1.717,-3.3458 4.16,-5.887 7.33,-7.6237 3.169,-1.7367 6.657,-2.605 10.464,-2.605 z m -206.599,0 c 3.199,0 6.02,0.5151 8.463,1.5453 2.443,1.0302 4.322,2.5462 5.637,4.5478 1.315,2.0016 2.021,4.2681 2.119,6.7995 l -5.475,0.4121 c -0.294,-2.7277 -1.29,-4.7881 -2.987,-6.1814 -1.698,-1.3933 -4.205,-2.0899 -7.521,-2.0899 -3.454,0 -5.971,0.6329 -7.55,1.8986 -1.58,1.2657 -2.37,2.7914 -2.37,4.5772 0,1.5502 0.559,2.8258 1.678,3.8266 1.099,1.0008 3.969,2.0261 8.61,3.0759 4.641,1.0499 7.825,1.9673 9.552,2.7522 2.511,1.1578 4.366,2.6247 5.563,4.4006 1.197,1.776 1.795,3.8217 1.795,6.1373 0,2.29594 -0.657,4.45943 -1.972,6.49047 -1.315,2.03103 -3.203,3.61073 -5.666,4.739083 -2.463,1.128353 -5.235,1.69253 -8.316,1.69253 -3.905,0 -7.177,-0.569083 -9.816,-1.707248 -2.64,-1.138165 -4.71,-2.850315 -6.211,-5.136465 -1.501,-2.28614 -2.291,-4.87157 -2.37,-7.75617 l 5.387,-0.471 c 0.255,2.1586 0.849,3.9296 1.781,5.31308 0.932,1.38346 2.379,2.502 4.342,3.35562 1.962,0.85363 4.17,1.28044 6.623,1.28044 2.178,0 4.101,-0.32379 5.769,-0.97137 1.668,-0.64757 2.909,-1.53554 3.723,-2.66389 0.815,-1.12835 1.222,-2.35978 1.222,-3.69418 0,-1.354 -0.392,-2.5363 -1.177,-3.5469 -0.785,-1.0106 -2.081,-1.8593 -3.886,-2.5462 -1.158,-0.4513 -3.719,-1.1528 -7.683,-2.1046 -3.963,-0.9517 -6.74,-1.8495 -8.33,-2.6933 -2.06,-1.0793 -3.596,-2.4186 -4.606,-4.0179 -1.011,-1.5993 -1.516,-3.39 -1.516,-5.372 0,-2.1782 0.618,-4.2141 1.854,-6.1078 1.236,-1.8937 3.042,-3.3311 5.416,-4.3123 2.375,-0.9812 5.014,-1.4717 7.918,-1.4717 z"
               stroke="#000000"
               stroke-width="1.45"
               fill-rule="evenodd"
               transform="matrix(1.0101,0,0,1,880.279,180.934)"
               id="path579" />
            <text
               fill="#000000"
               fill-opacity="0"
               font-family="Arial, Arial_MSFontService, sans-serif"
               font-size="44.6239px"
               x="4.5919099"
               y="-4.8421102"
               id="text581">NAMSAN TECH</text>
            <path
               d="m 183.837,-38.6191 c -0.55,2.7669 -1.325,5.5142 -2.326,8.2419 l -4.739,12.6571 h 14.63 l -4.504,-11.9507 c -1.374,-3.6303 -2.394,-6.6131 -3.061,-8.9483 z m -126.0475,0 c -0.5494,2.7669 -1.3245,5.5142 -2.3254,8.2419 l -4.739,12.6571 h 14.6293 l -4.5036,-11.9507 c -1.3736,-3.6303 -2.3941,-6.6131 -3.0613,-8.9483 z m 314.2195,-4.5331 h 5.71 v 17.7201 h 22.43 v -17.7201 h 5.71 V 0 h -5.71 v -20.3398 h -22.43 V 0 h -5.71 z m -71.303,0 h 31.201 v 5.0924 h -25.491 v 13.2164 h 23.872 v 5.0629 h -23.872 v 14.68819 h 26.492 V 0 h -32.202 z m -36.238,0 h 34.204 v 5.0924 H 284.396 V 0 h -5.711 v -38.0598 h -14.217 z m -51.624,0 h 5.858 l 22.665,33.88008 V -43.1522 h 5.475 V 0 h -5.858 L 218.319,-33.9095 V 0 h -5.475 z m -31.951,0 h 6.152 L 204.706,0 h -6.505 l -5.033,-13.0693 H 175.124 L 170.385,0 h -6.064 z m -94.2141,0 h 8.5952 l 10.2139,30.5539 c 0.942,2.8454 1.629,4.97456 2.061,6.38745 0.49,-1.56988 1.255,-3.87565 2.296,-6.91725 l 10.331,-30.0241 h 7.683 V 0 h -5.504 V -36.1171 L 109.815,0 h -5.151 L 92.1834,-36.7353 V 0 h -5.5045 z m -82.08699,0 H 10.4495 L 33.1147,-9.27212 V -43.1522 h 5.475 V -0.822204 L 54.846,-43.1522 h 6.152 L 78.6592,0 H 72.154 L 67.1205,-13.0693 H 49.0767 L 44.3376,0 H 38.5897 38.2739 32.7321 L 10.0669,-33.9095 V 0 H 4.59191 Z M 352.191,-43.888 c 4.317,0 7.947,1.0989 10.891,3.2967 2.943,2.1978 4.994,5.2886 6.152,9.2721 l -5.622,1.3246 c -1.001,-3.1397 -2.453,-5.4259 -4.357,-6.8584 -1.903,-1.4325 -4.297,-2.1488 -7.182,-2.1488 -3.316,0 -6.088,0.7948 -8.315,2.3843 -2.228,1.5895 -3.793,3.7235 -4.695,6.4022 -0.903,2.6786 -1.354,5.4406 -1.354,8.286 0,3.6696 0.534,6.8731 1.604,9.6106 1.069,2.73751 2.732,4.78326 4.989,6.13729 2.257,1.35402 4.7,2.03103 7.329,2.03103 3.199,0 5.907,-0.9223 8.125,-2.76692 2.217,-1.84461 3.718,-4.5821 4.503,-8.2124 l 5.711,1.4423 c -1.197,4.69001 -3.351,8.2664 -6.461,10.72915 -3.111,2.462756 -6.913,3.694133 -11.407,3.694133 -4.65,0 -8.433,-0.946836 -11.347,-2.840503 -2.914,-1.89368 -5.131,-4.63606 -6.652,-8.22718 -1.521,-3.5911 -2.281,-7.4471 -2.281,-11.5681 0,-4.4938 0.858,-8.4136 2.575,-11.7594 1.717,-3.3458 4.16,-5.887 7.33,-7.6237 3.169,-1.7367 6.657,-2.605 10.464,-2.605 z m -206.599,0 c 3.199,0 6.02,0.5151 8.463,1.5453 2.443,1.0302 4.322,2.5462 5.637,4.5478 1.315,2.0016 2.021,4.2681 2.119,6.7995 l -5.475,0.4121 c -0.294,-2.7277 -1.29,-4.7881 -2.987,-6.1814 -1.698,-1.3933 -4.205,-2.0899 -7.521,-2.0899 -3.454,0 -5.971,0.6329 -7.55,1.8986 -1.58,1.2657 -2.37,2.7914 -2.37,4.5772 0,1.5502 0.559,2.8258 1.678,3.8266 1.099,1.0008 3.969,2.0261 8.61,3.0759 4.641,1.0499 7.825,1.9673 9.552,2.7522 2.511,1.1578 4.366,2.6247 5.563,4.4006 1.197,1.776 1.795,3.8217 1.795,6.1373 0,2.29594 -0.657,4.45943 -1.972,6.49047 -1.315,2.03103 -3.203,3.61073 -5.666,4.739083 -2.463,1.128353 -5.235,1.69253 -8.316,1.69253 -3.905,0 -7.177,-0.569083 -9.816,-1.707248 -2.64,-1.138165 -4.71,-2.850315 -6.211,-5.136465 -1.501,-2.28614 -2.291,-4.87157 -2.37,-7.75617 l 5.387,-0.471 c 0.255,2.1586 0.849,3.9296 1.781,5.31308 0.932,1.38346 2.379,2.502 4.342,3.35562 1.962,0.85363 4.17,1.28044 6.623,1.28044 2.178,0 4.101,-0.32379 5.769,-0.97137 1.668,-0.64757 2.909,-1.53554 3.723,-2.66389 0.815,-1.12835 1.222,-2.35978 1.222,-3.69418 0,-1.354 -0.392,-2.5363 -1.177,-3.5469 -0.785,-1.0106 -2.081,-1.8593 -3.886,-2.5462 -1.158,-0.4513 -3.719,-1.1528 -7.683,-2.1046 -3.963,-0.9517 -6.74,-1.8495 -8.33,-2.6933 -2.06,-1.0793 -3.596,-2.4186 -4.606,-4.0179 -1.011,-1.5993 -1.516,-3.39 -1.516,-5.372 0,-2.1782 0.618,-4.2141 1.854,-6.1078 1.236,-1.8937 3.042,-3.3311 5.416,-4.3123 2.375,-0.9812 5.014,-1.4717 7.918,-1.4717 z"
               stroke="#fffffc"
               stroke-width="1.45"
               fill="#ffffff"
               fill-rule="evenodd"
               transform="matrix(1.0101,0,0,1,886.976,187.489)"
               id="path583" />
            <text
               fill="#000000"
               fill-opacity="0"
               font-family="Arial, Arial_MSFontService, sans-serif"
               font-size="44.6239px"
               x="4.5919099"
               y="-4.8421102"
               id="text585">NAMSAN TECH</text>
            <path
               d="m 183.837,-38.6191 c -0.55,2.7669 -1.325,5.5142 -2.326,8.2419 l -4.739,12.6571 h 14.63 l -4.504,-11.9507 c -1.374,-3.6303 -2.394,-6.6131 -3.061,-8.9483 z m -126.0475,0 c -0.5494,2.7669 -1.3245,5.5142 -2.3254,8.2419 l -4.739,12.6571 h 14.6293 l -4.5036,-11.9507 c -1.3736,-3.6303 -2.3941,-6.6131 -3.0613,-8.9483 z m 314.2195,-4.5331 h 5.71 v 17.7201 h 22.43 v -17.7201 h 5.71 V 0 h -5.71 v -20.3398 h -22.43 V 0 h -5.71 z m -71.303,0 h 31.201 v 5.0924 h -25.491 v 13.2164 h 23.872 v 5.0629 h -23.872 v 14.68819 h 26.492 V 0 h -32.202 z m -36.238,0 h 34.204 v 5.0924 H 284.396 V 0 h -5.711 v -38.0598 h -14.217 z m -51.624,0 h 5.858 l 22.665,33.88008 V -43.1522 h 5.475 V 0 h -5.858 L 218.319,-33.9095 V 0 h -5.475 z m -31.951,0 h 6.152 L 204.706,0 h -6.505 l -5.033,-13.0693 H 175.124 L 170.385,0 h -6.064 z m -94.2141,0 h 8.5952 l 10.2139,30.5539 c 0.942,2.8454 1.629,4.97456 2.061,6.38745 0.49,-1.56988 1.255,-3.87565 2.296,-6.91725 l 10.331,-30.0241 h 7.683 V 0 h -5.504 V -36.1171 L 109.815,0 h -5.151 L 92.1834,-36.7353 V 0 h -5.5045 z m -82.08699,0 H 10.4495 L 33.1147,-9.27212 V -43.1522 h 5.475 V -0.822204 L 54.846,-43.1522 h 6.152 L 78.6592,0 H 72.154 L 67.1205,-13.0693 H 49.0767 L 44.3376,0 H 38.5897 38.2739 32.7321 L 10.0669,-33.9095 V 0 H 4.59191 Z M 352.191,-43.888 c 4.317,0 7.947,1.0989 10.891,3.2967 2.943,2.1978 4.994,5.2886 6.152,9.2721 l -5.622,1.3246 c -1.001,-3.1397 -2.453,-5.4259 -4.357,-6.8584 -1.903,-1.4325 -4.297,-2.1488 -7.182,-2.1488 -3.316,0 -6.088,0.7948 -8.315,2.3843 -2.228,1.5895 -3.793,3.7235 -4.695,6.4022 -0.903,2.6786 -1.354,5.4406 -1.354,8.286 0,3.6696 0.534,6.8731 1.604,9.6106 1.069,2.73751 2.732,4.78326 4.989,6.13729 2.257,1.35402 4.7,2.03103 7.329,2.03103 3.199,0 5.907,-0.9223 8.125,-2.76692 2.217,-1.84461 3.718,-4.5821 4.503,-8.2124 l 5.711,1.4423 c -1.197,4.69001 -3.351,8.2664 -6.461,10.72915 -3.111,2.462756 -6.913,3.694133 -11.407,3.694133 -4.65,0 -8.433,-0.946836 -11.347,-2.840503 -2.914,-1.89368 -5.131,-4.63606 -6.652,-8.22718 -1.521,-3.5911 -2.281,-7.4471 -2.281,-11.5681 0,-4.4938 0.858,-8.4136 2.575,-11.7594 1.717,-3.3458 4.16,-5.887 7.33,-7.6237 3.169,-1.7367 6.657,-2.605 10.464,-2.605 z m -206.599,0 c 3.199,0 6.02,0.5151 8.463,1.5453 2.443,1.0302 4.322,2.5462 5.637,4.5478 1.315,2.0016 2.021,4.2681 2.119,6.7995 l -5.475,0.4121 c -0.294,-2.7277 -1.29,-4.7881 -2.987,-6.1814 -1.698,-1.3933 -4.205,-2.0899 -7.521,-2.0899 -3.454,0 -5.971,0.6329 -7.55,1.8986 -1.58,1.2657 -2.37,2.7914 -2.37,4.5772 0,1.5502 0.559,2.8258 1.678,3.8266 1.099,1.0008 3.969,2.0261 8.61,3.0759 4.641,1.0499 7.825,1.9673 9.552,2.7522 2.511,1.1578 4.366,2.6247 5.563,4.4006 1.197,1.776 1.795,3.8217 1.795,6.1373 0,2.29594 -0.657,4.45943 -1.972,6.49047 -1.315,2.03103 -3.203,3.61073 -5.666,4.739083 -2.463,1.128353 -5.235,1.69253 -8.316,1.69253 -3.905,0 -7.177,-0.569083 -9.816,-1.707248 -2.64,-1.138165 -4.71,-2.850315 -6.211,-5.136465 -1.501,-2.28614 -2.291,-4.87157 -2.37,-7.75617 l 5.387,-0.471 c 0.255,2.1586 0.849,3.9296 1.781,5.31308 0.932,1.38346 2.379,2.502 4.342,3.35562 1.962,0.85363 4.17,1.28044 6.623,1.28044 2.178,0 4.101,-0.32379 5.769,-0.97137 1.668,-0.64757 2.909,-1.53554 3.723,-2.66389 0.815,-1.12835 1.222,-2.35978 1.222,-3.69418 0,-1.354 -0.392,-2.5363 -1.177,-3.5469 -0.785,-1.0106 -2.081,-1.8593 -3.886,-2.5462 -1.158,-0.4513 -3.719,-1.1528 -7.683,-2.1046 -3.963,-0.9517 -6.74,-1.8495 -8.33,-2.6933 -2.06,-1.0793 -3.596,-2.4186 -4.606,-4.0179 -1.011,-1.5993 -1.516,-3.39 -1.516,-5.372 0,-2.1782 0.618,-4.2141 1.854,-6.1078 1.236,-1.8937 3.042,-3.3311 5.416,-4.3123 2.375,-0.9812 5.014,-1.4717 7.918,-1.4717 z"
               stroke="#000000"
               stroke-width="1.45"
               fill-rule="evenodd"
               transform="matrix(1.0101,0,0,1,891.137,194.755)"
               id="path587" />
            <text
               fill="#000000"
               fill-opacity="0"
               font-family="Arial, Arial_MSFontService, sans-serif"
               font-size="44.6239px"
               x="4.5919099"
               y="-4.8421102"
               id="text589">NAMSAN TECH</text>
          </g>
        </g>
      </g>
    </g>
  </g>
</svg>
